<?xml version="1.0" standalone="no"?>
<!DOCTYPE svg PUBLIC "-//W3C//DTD SVG 20010904//EN"
 "http://www.w3.org/TR/2001/REC-SVG-20010904/DTD/svg10.dtd">
<svg version="1.0" xmlns="http://www.w3.org/2000/svg"
 width="577.000000pt" height="433.000000pt" viewBox="0 0 577.000000 433.000000"
 preserveAspectRatio="xMidYMid meet">

<g transform="translate(0.000000,433.000000) scale(0.100000,-0.100000)"
fill="#000000" stroke="none">
<path d="M1614 3017 c-3 -8 46 -64 115 -133 66 -65 121 -122 121 -126 0 -5
-93 -8 -207 -8 -248 0 -276 -8 -312 -83 -22 -44 -22 -54 -19 -354 3 -287 4
-310 23 -341 11 -19 37 -42 57 -53 35 -18 64 -19 510 -19 439 0 476 2 514 19
28 13 46 30 60 57 17 35 19 67 22 342 4 443 14 431 -338 432 l-215 0 128 128
c70 70 127 130 127 134 0 3 -7 9 -16 12 -11 4 -54 -31 -146 -121 -71 -71 -131
-130 -133 -131 -2 -2 -62 55 -134 127 -72 72 -135 131 -141 131 -6 0 -13 -6
-16 -13z m813 -315 c40 -25 44 -69 41 -399 l-3 -313 -33 -32 -32 -33 -470 -3
c-315 -2 -483 1 -510 8 -32 9 -44 19 -60 50 -19 37 -20 59 -20 345 0 287 1
308 20 345 11 22 21 41 23 42 4 5 952 13 987 9 19 -2 45 -11 57 -19z"/>
<path d="M3574 3019 c-4 -7 48 -66 122 -140 l129 -129 -215 0 c-262 0 -283 -6
-319 -89 -21 -50 -22 -61 -19 -349 3 -342 7 -359 82 -393 38 -17 75 -19 514
-19 529 0 521 -1 564 69 22 35 23 44 26 344 3 300 3 310 -19 354 -36 75 -64
83 -311 83 -115 0 -208 3 -208 7 0 3 54 60 120 126 66 66 120 123 120 127 0 4
-7 11 -15 14 -11 4 -57 -35 -146 -125 l-131 -132 -111 109 c-61 60 -119 119
-129 132 -21 24 -43 29 -54 11z m804 -315 c50 -35 52 -51 52 -377 0 -256 -2
-309 -16 -335 -32 -64 -10 -62 -549 -62 -437 0 -493 2 -514 16 -47 33 -51 62
-51 381 0 264 2 302 18 333 9 19 28 40 42 47 19 10 142 13 510 13 424 0 488
-2 508 -16z"/>
<path d="M2154 1708 c4 -24 17 -63 29 -88 27 -55 125 -154 190 -194 98 -58
286 -112 419 -118 76 -4 83 6 11 15 -80 10 -234 63 -310 106 -98 57 -174 141
-202 222 -11 35 -21 71 -21 81 0 15 -9 18 -61 18 l-62 0 7 -42z"/>
<path d="M3551 1697 c-38 -31 -58 -53 -50 -55 39 -10 39 -11 19 -44 -21 -35
-129 -148 -141 -148 -4 0 -34 -15 -66 -34 -62 -37 -152 -68 -254 -91 l-64 -13
52 -1 c113 -2 318 58 408 118 25 17 49 31 53 31 14 0 100 94 116 127 17 34 50
58 66 48 25 -16 5 25 -33 66 l-43 46 -63 -50z"/>
<path d="M2918 1303 c7 -3 16 -2 19 1 4 3 -2 6 -13 5 -11 0 -14 -3 -6 -6z"/>
<path d="M2968 1303 c7 -3 16 -2 19 1 4 3 -2 6 -13 5 -11 0 -14 -3 -6 -6z"/>
</g>
</svg>
