<svg version="1.1" viewBox="0.0 0.0 960.0 720.0" fill="none" stroke="none" stroke-linecap="square" stroke-miterlimit="10" xmlns:xlink="http://www.w3.org/1999/xlink" xmlns="http://www.w3.org/2000/svg"><clipPath id="p.0"><path d="m0 0l960.0 0l0 720.0l-960.0 0l0 -720.0z" clip-rule="nonzero"/></clipPath><g clip-path="url(#p.0)"><path fill="#ffffff" d="m0 0l960.0 0l0 720.0l-960.0 0z" fill-rule="evenodd"/><path fill="#ffe01b" d="m220.04462 287.8233l0 0c0 -12.617279 10.2283325 -22.845612 22.845612 -22.845612l148.00958 0c6.059021 0 11.869904 2.406952 16.154266 6.6913147c4.2843933 4.2843933 6.6913147 10.095245 6.6913147 16.154297l0 91.37964c0 12.617279 -10.228302 22.845612 -22.845581 22.845612l-148.00958 0c-12.617279 0 -22.845612 -10.2283325 -22.845612 -22.845612z" fill-rule="evenodd"/><path stroke="#0a2c2a" stroke-width="4.0" stroke-linejoin="round" stroke-linecap="butt" d="m220.04462 287.8233l0 0c0 -12.617279 10.2283325 -22.845612 22.845612 -22.845612l148.00958 0c6.059021 0 11.869904 2.406952 16.154266 6.6913147c4.2843933 4.2843933 6.6913147 10.095245 6.6913147 16.154297l0 91.37964c0 12.617279 -10.228302 22.845612 -22.845581 22.845612l-148.00958 0c-12.617279 0 -22.845612 -10.2283325 -22.845612 -22.845612z" fill-rule="evenodd"/><path fill="#4bbda8" d="m546.2546 287.8233l0 0c0 -12.617279 10.2283325 -22.845612 22.845642 -22.845612l148.00958 0c6.059021 0 11.869873 2.406952 16.154236 6.6913147c4.284424 4.2843933 6.691345 10.095245 6.691345 16.154297l0 91.37964c0 12.617279 -10.2283325 22.845612 -22.845581 22.845612l-148.00958 0c-12.61731 0 -22.845642 -10.2283325 -22.845642 -22.845612z" fill-rule="evenodd"/><path stroke="#0a2c2a" stroke-width="4.0" stroke-linejoin="round" stroke-linecap="butt" d="m546.2546 287.8233l0 0c0 -12.617279 10.2283325 -22.845612 22.845642 -22.845612l148.00958 0c6.059021 0 11.869873 2.406952 16.154236 6.6913147c4.284424 4.2843933 6.691345 10.095245 6.691345 16.154297l0 91.37964c0 12.617279 -10.2283325 22.845612 -22.845581 22.845612l-148.00958 0c-12.61731 0 -22.845642 -10.2283325 -22.845642 -22.845612z" fill-rule="evenodd"/><path fill="#0a2c2a" d="m601.9764 429.4475l14.561768 18.275574l-9.137756 0l0 0c-14.190063 34.35132 -65.79205 57.375244 -122.37872 54.603333l0 0c49.794983 -2.4392395 91.61621 -24.37497 104.10309 -54.603333l-9.137756 0z" fill-rule="evenodd"/><path fill="#072321" d="m475.88385 502.54987c-64.592316 0 -116.95471 -32.729034 -116.95471 -73.102356l18.275574 0l0 0c0 40.37332 52.362427 73.102356 116.95474 73.102356z" fill-rule="evenodd"/><path fill="#000000" fill-opacity="0.0" d="m485.02167 502.32642l0 0c49.794983 -2.4392395 91.61621 -24.37497 104.10309 -54.603333l-9.137756 0l21.98938 -18.275574l14.561768 18.275574l-9.137756 0l0 0c-13.332825 32.276062 -59.90979 54.826782 -113.24094 54.826782l-18.275604 0c-64.592316 0 -116.95471 -32.729034 -116.95471 -73.102356l18.275574 0l0 0c0 40.37332 52.362427 73.102356 116.95474 73.102356" fill-rule="evenodd"/><path stroke="#0a2c2a" stroke-width="1.0" stroke-linejoin="round" stroke-linecap="butt" d="m485.02167 502.32642l0 0c49.794983 -2.4392395 91.61621 -24.37497 104.10309 -54.603333l-9.137756 0l21.98938 -18.275574l14.561768 18.275574l-9.137756 0l0 0c-13.332825 32.276062 -59.90979 54.826782 -113.24094 54.826782l-18.275604 0c-64.592316 0 -116.95471 -32.729034 -116.95471 -73.102356l18.275574 0l0 0c0 40.37332 52.362427 73.102356 116.95474 73.102356" fill-rule="evenodd"/><path fill="#000000" fill-opacity="0.0" d="m595.57745 217.45013l47.527527 47.527557" fill-rule="evenodd"/><path stroke="#595959" stroke-width="8.0" stroke-linejoin="round" stroke-linecap="butt" d="m595.57745 217.45013l47.527527 47.527557" fill-rule="evenodd"/><path fill="#000000" fill-opacity="0.0" d="m690.63257 217.45013l-47.527588 47.527557" fill-rule="evenodd"/><path stroke="#595959" stroke-width="8.0" stroke-linejoin="round" stroke-linecap="butt" d="m690.63257 217.45013l-47.527588 47.527557" fill-rule="evenodd"/><path fill="#000000" fill-opacity="0.0" d="m269.36746 217.45013l47.527557 47.527557" fill-rule="evenodd"/><path stroke="#595959" stroke-width="8.0" stroke-linejoin="round" stroke-linecap="butt" d="m269.36746 217.45013l47.527557 47.527557" fill-rule="evenodd"/><path fill="#000000" fill-opacity="0.0" d="m364.42258 217.45013l-47.527557 47.527557" fill-rule="evenodd"/><path stroke="#595959" stroke-width="8.0" stroke-linejoin="round" stroke-linecap="butt" d="m364.42258 217.45013l-47.527557 47.527557" fill-rule="evenodd"/></g></svg>